<?xml version="1.0" standalone="no"?>
<!DOCTYPE svg PUBLIC "-//W3C//DTD SVG 20010904//EN"
 "http://www.w3.org/TR/2001/REC-SVG-20010904/DTD/svg10.dtd">
<svg version="1.0" xmlns="http://www.w3.org/2000/svg"
 width="225.000000pt" height="225.000000pt" viewBox="0 0 225.000000 225.000000"
 preserveAspectRatio="xMidYMid meet">

<g transform="translate(0.000000,225.000000) scale(0.100000,-0.100000)"
fill="#000000" stroke="none">
<path d="M1032 2238 c-19 -19 -16 -172 4 -189 23 -19 48 1 52 40 2 17 6 31 10
31 3 0 26 -19 49 -42 36 -35 47 -41 61 -32 25 16 30 175 7 194 -24 20 -49 1
-53 -39 -2 -17 -7 -31 -11 -31 -4 0 -25 18 -46 40 -41 42 -54 47 -73 28z"/>
<path d="M759 2076 c-175 -73 -318 -177 -424 -309 -73 -90 -173 -281 -182
-345 -5 -35 -2 -41 17 -47 29 -9 33 -4 69 91 96 251 295 449 546 545 94 36 99
40 90 68 -9 28 -44 27 -116 -3z"/>
<path d="M1375 2080 c-9 -29 -4 -33 91 -69 251 -96 449 -295 545 -546 36 -94
40 -99 69 -90 19 6 22 12 17 47 -9 64 -109 255 -182 345 -36 45 -103 112 -148
148 -90 73 -281 173 -345 182 -35 5 -41 2 -47 -17z"/>
<path d="M1003 1800 c-241 -44 -451 -229 -529 -466 -25 -78 -29 -104 -29 -209
0 -105 4 -131 29 -208 69 -210 233 -374 442 -443 78 -25 104 -29 209 -29 105
0 131 4 208 29 210 69 374 233 443 442 25 78 29 104 29 209 0 105 -4 131 -29
209 -90 274 -337 462 -621 472 -55 1 -123 -1 -152 -6z m258 -75 c11 -4 16 -21
17 -64 l2 -58 -50 -5 c-57 -6 -86 -27 -95 -69 -4 -16 -20 -42 -36 -58 -17 -17
-29 -40 -29 -55 0 -42 33 -56 133 -56 91 0 127 -10 127 -35 0 -20 -76 -20
-150 0 -104 28 -184 11 -242 -51 -35 -38 -48 -74 -48 -136 0 -94 61 -147 180
-157 l65 -6 7 -40 c4 -22 10 -53 13 -70 4 -16 11 -54 17 -83 12 -66 57 -122
97 -122 35 0 111 49 145 93 18 23 30 56 37 98 7 44 19 76 39 104 52 70 65 102
53 128 -6 13 -27 31 -47 41 -52 24 -52 35 0 33 66 -3 87 30 59 95 -6 16 -3 16
39 -3 39 -17 52 -18 87 -9 23 6 44 8 48 5 3 -4 6 -61 5 -128 -1 -136 -19 -203
-85 -313 -67 -111 -207 -223 -324 -260 l-50 -16 -53 36 c-29 19 -72 41 -95 47
-56 15 -141 4 -202 -26 l-49 -24 -47 26 c-26 14 -63 38 -82 54 l-36 30 20 33
c12 21 19 48 17 72 -1 22 4 62 11 90 19 69 9 99 -50 156 -48 46 -49 49 -49
107 0 75 -30 118 -91 127 -41 7 -45 16 -30 57 8 19 15 23 35 20 28 -6 90 28
105 56 5 9 34 29 64 45 86 43 92 54 91 151 l-2 83 47 20 c54 23 118 42 144 42
36 0 15 -43 -30 -65 -59 -28 -93 -61 -93 -89 0 -45 52 -58 65 -16 3 10 27 28
53 40 67 31 80 46 88 97 l7 46 66 -6 c36 -3 73 -8 82 -12z m253 -125 c67 -56
121 -124 162 -205 l35 -70 -32 -13 c-29 -12 -37 -11 -75 7 -32 17 -48 19 -67
12 -33 -13 -61 -55 -54 -81 4 -17 0 -20 -34 -20 -96 0 -87 -134 12 -165 17 -6
15 -11 -21 -59 -32 -42 -43 -69 -54 -127 -13 -67 -19 -78 -57 -111 -23 -21
-47 -38 -54 -38 -15 0 -32 37 -40 87 -11 73 -27 148 -38 177 -12 34 -59 56
-117 56 -92 0 -140 49 -119 123 21 78 91 110 189 87 30 -7 87 -15 125 -17 61
-4 74 -2 98 17 21 16 27 30 27 59 0 76 -54 111 -171 111 -70 0 -72 1 -55 19 9
10 21 32 25 47 7 27 12 30 66 35 76 9 88 24 82 101 -3 31 -3 59 0 62 9 9 115
-51 167 -94z m-746 -27 c-3 -46 -5 -49 -51 -74 -26 -14 -65 -43 -87 -64 -22
-21 -43 -36 -46 -32 -17 17 148 217 179 217 4 0 7 -21 5 -47z m-211 -384 c30
-10 31 -13 35 -80 4 -68 4 -70 57 -123 49 -50 53 -57 46 -88 -4 -18 -9 -61
-12 -96 -4 -57 -7 -63 -25 -60 -26 4 -89 107 -118 191 -29 85 -40 267 -17 267
2 0 18 -5 34 -11z m581 -656 l37 -17 -35 -4 c-47 -5 -160 8 -160 18 0 22 111
24 158 3z"/>
<path d="M1570 965 c-6 -8 -9 -23 -5 -35 5 -16 -2 -29 -30 -56 -43 -40 -43
-67 -1 -72 36 -4 70 27 92 84 15 41 15 45 0 69 -19 28 -38 32 -56 10z"/>
<path d="M2044 1247 c-2 -7 -3 -67 -2 -133 l3 -119 91 -3 c75 -2 93 0 97 13
13 33 -3 45 -64 45 -52 0 -59 2 -59 20 0 18 7 20 54 20 60 0 88 19 69 48 -7
12 -27 18 -67 20 -47 3 -56 6 -56 22 0 17 9 19 68 22 64 3 67 4 67 28 0 25 -1
25 -98 28 -74 2 -99 0 -103 -11z"/>
<path d="M11 1216 c-8 -10 -8 -30 4 -82 28 -123 44 -138 97 -87 l28 27 28 -27
c32 -31 57 -34 70 -9 5 9 17 50 27 90 16 68 16 75 1 90 -24 24 -49 4 -60 -47
-10 -44 -17 -49 -36 -26 -16 19 -44 19 -60 0 -16 -20 -26 -12 -34 26 -11 54
-40 75 -65 45z"/>
<path d="M161 871 c-23 -15 -7 -74 53 -195 103 -210 253 -359 463 -463 61 -30
129 -57 151 -60 35 -5 41 -2 47 17 9 29 4 33 -90 69 -254 97 -441 284 -545
544 -36 90 -51 106 -79 88z"/>
<path d="M2040 858 c-5 -13 -23 -58 -41 -101 -95 -235 -291 -425 -533 -518
-95 -36 -100 -40 -91 -69 6 -19 12 -22 47 -17 22 3 90 30 151 60 210 104 360
253 463 463 60 121 76 180 53 195 -23 15 -39 10 -49 -13z"/>
<path d="M1101 266 c-7 -9 -11 -40 -9 -83 l3 -68 50 -5 c36 -4 51 -10 53 -22
3 -14 -6 -17 -44 -20 -54 -3 -77 -26 -54 -53 10 -12 28 -15 84 -13 l71 3 3 75
c3 85 -7 100 -65 100 -52 0 -43 28 10 32 39 3 42 5 42 33 l0 30 -66 3 c-48 2
-69 -1 -78 -12z"/>
</g>
</svg>
